<?xml version="1.0" encoding="utf-8"?>
<!-- Generator: Adobe Illustrator 16.0.0, SVG Export Plug-In . SVG Version: 6.00 Build 0)  --><!DOCTYPE svg PUBLIC "-//W3C//DTD SVG 1.1//EN" "http://www.w3.org/Graphics/SVG/1.1/DTD/svg11.dtd">
<svg enable-background="new 0 0 24 24" height="24px" id="Layer_1" version="1.1" viewBox="0 0 24 24" width="24px" x="0px" xml:space="preserve" xmlns="http://www.w3.org/2000/svg" xmlns:xlink="http://www.w3.org/1999/xlink" y="0px">
<g>
<path d="M17,4.8C17,4.8,17,4.8,17,4.8c0.5,0.4,1.1,0.7,1.8,0.7c1.5,0,2.7-1.2,2.7-2.7s-1.2-2.7-2.7-2.7s-2.7,1.2-2.7,2.7   c0,0.4,0.1,0.8,0.3,1.2c0,0,0,0,0,0l-9.3,6.6c-0.5-0.5-1.2-0.8-1.9-0.8c-1.5,0-2.7,1.2-2.7,2.7s1.2,2.7,2.7,2.7   c0.8,0,1.5-0.3,1.9-0.9c0,0,0.1,0.1,0.1,0.1l9,6.4c0,0.1,0,0.3,0,0.4c0,1.5,1.2,2.7,2.7,2.7s2.7-1.2,2.7-2.7s-1.2-2.7-2.7-2.7   c-1,0-1.8,0.5-2.3,1.3l-8.7-6.2c-0.1,0-0.1-0.1-0.2-0.1c0.1-0.3,0.2-0.7,0.2-1c0-0.4-0.1-0.7-0.2-1c0,0,0,0,0,0L17,4.8z M18.8,1.2   c0.9,0,1.7,0.7,1.7,1.7s-0.7,1.7-1.7,1.7s-1.7-0.7-1.7-1.7S17.9,1.2,18.8,1.2z M18.8,19.5c0.9,0,1.7,0.7,1.7,1.7s-0.7,1.7-1.7,1.7   s-1.7-0.7-1.7-1.7S17.9,19.5,18.8,19.5z M5.2,14.1c-0.9,0-1.7-0.7-1.7-1.7s0.7-1.7,1.7-1.7s1.7,0.7,1.7,1.7S6.1,14.1,5.2,14.1z" fill="#FFFFFF"/>
</g>
</svg>